<?xml version="1.0" standalone="no"?><!DOCTYPE svg PUBLIC "-//W3C//DTD SVG 1.1//EN" "http://www.w3.org/Graphics/SVG/1.1/DTD/svg11.dtd"><svg width="100%" height="100%" viewBox="0 0 840 620" version="1.1" xmlns="http://www.w3.org/2000/svg" xmlns:xlink="http://www.w3.org/1999/xlink" xml:space="preserve" style="fill-rule:evenodd;clip-rule:evenodd;stroke-linejoin:round;stroke-miterlimit:1.41421;"><g id="Layer1"><g id="Layer2"><g><path d="M530.547,204.892l0,129.147c0,28.559 -23.186,51.746 -51.745,51.746l-103.492,0c-28.559,0 -51.745,-23.187 -51.745,-51.746l0,-120.108l85.459,-49.34c5.767,4.068 12.802,6.459 20.39,6.459c9.682,0 18.462,-3.891 24.861,-10.194l76.272,44.036ZM323.565,169.896l0,-115.523c0,-28.559 23.186,-51.745 51.745,-51.745l103.492,0c28.559,0 51.745,23.186 51.745,51.745l0,106.385l-68.838,-39.743c-5.567,-12.285 -17.94,-20.839 -32.295,-20.839c-17.254,0 -31.644,12.358 -34.796,28.698l-71.053,41.022Z" style="fill:#37bae5;"/><path d="M283.14,238.765l0,97.943c0,27.031 -21.649,48.977 -48.313,48.977l-96.627,0c-26.665,0 -48.313,-21.946 -48.313,-48.977l0,-159.268c0,-27.031 21.648,-48.977 48.313,-48.977l96.627,0c26.664,0 48.313,21.946 48.313,48.977l0,16.686l-64.243,37.599c-4.553,-2.159 -9.632,-3.366 -14.987,-3.366c-19.558,0 -35.437,16.097 -35.437,35.924c0,19.826 15.879,35.923 35.437,35.923c19.521,0 35.376,-16.035 35.437,-35.81l43.793,-25.631Z" style="fill:#f6b800;"/><path d="M565.296,179.294l0,-2.58c0,-26.536 21.648,-48.079 48.313,-48.079l96.626,0c26.665,0 48.313,21.543 48.313,48.079l0,160.908c0,26.535 -21.648,48.079 -48.313,48.079l-96.626,0c-26.665,0 -48.313,-21.544 -48.313,-48.079l0,-114.409l62.534,35.93c2.35,17.201 17.186,30.477 35.112,30.477c19.558,0 35.437,-15.802 35.437,-35.266c0,-19.463 -15.879,-35.265 -35.437,-35.265c-6.951,0 -13.437,1.996 -18.911,5.443l-78.735,-45.238Z" style="fill:#e01933;"/></g></g><g id="Layer3"><path d="M109.998,528.174l-65.434,0l-17.027,35.15l-24.847,0l75.631,-153.816l72.957,153.816l-25.243,0l-16.037,-35.15ZM100.594,507.647l-22.669,-49.21l-23.759,49.21l46.428,0Z" style="fill:#fff;fill-rule:nonzero;stroke-width:1px;stroke:#484848;"/><path d="M210.085,486.621l0,78.773l-21.747,0l0,-78.773l-9.279,0l0,-21.652l9.279,0l0,-36.809l21.747,0l0,36.809l16.914,0l0,21.652l-16.914,0Z" style="fill:#fff;fill-rule:nonzero;stroke-width:1px;stroke:#484848;"/><path d="M343.342,474.748l21.762,0l0,91.586l-21.762,0l0,-9.591c-8.923,8.149 -18.52,12.224 -28.791,12.224c-12.968,0 -23.688,-4.576 -32.162,-13.728c-8.41,-9.341 -12.615,-21.001 -12.615,-34.98c0,-13.729 4.205,-25.169 12.615,-34.321c8.409,-9.153 18.937,-13.729 31.584,-13.729c10.913,0 20.703,4.388 29.369,13.164l0,-10.625ZM291.922,520.259c0,8.776 2.407,15.923 7.222,21.439c4.943,5.579 11.17,8.369 18.68,8.369c8.025,0 14.509,-2.696 19.452,-8.087c4.943,-5.579 7.414,-12.663 7.414,-21.251c0,-8.588 -2.471,-15.672 -7.414,-21.251c-4.943,-5.454 -11.363,-8.181 -19.259,-8.181c-7.447,0 -13.673,2.759 -18.681,8.275c-4.943,5.579 -7.414,12.475 -7.414,20.687Z" style="fill:#fff;fill-rule:nonzero;stroke-width:1px;stroke:#484848;"/><path d="M476.922,418.349l21.852,0l0,147.457l-21.852,0l0,-8.905c-8.574,7.566 -18.275,11.35 -29.105,11.35c-12.892,0 -23.593,-4.249 -32.102,-12.747c-8.444,-8.672 -12.667,-19.498 -12.667,-32.477c0,-12.688 4.223,-23.281 12.667,-31.779c8.38,-8.556 18.92,-12.834 31.619,-12.834c11.023,0 20.885,4.075 29.588,12.223l0,-72.288ZM425.288,523.027c0,8.148 2.417,14.784 7.252,19.905c4.963,5.18 11.216,7.77 18.758,7.77c8.058,0 14.568,-2.502 19.532,-7.508c4.964,-5.18 7.445,-11.757 7.445,-19.73c0,-7.974 -2.481,-14.551 -7.445,-19.731c-4.964,-5.064 -11.41,-7.596 -19.339,-7.596c-7.477,0 -13.73,2.561 -18.758,7.683c-4.964,5.18 -7.445,11.582 -7.445,19.207Z" style="fill:#fff;fill-rule:nonzero;stroke-width:1px;stroke:#484848;"/><path d="M634.982,566.347c0,4.354 -0.137,8.187 -0.41,11.499c-0.273,3.313 -0.652,6.231 -1.137,8.754c-1.455,6.941 -4.305,12.903 -8.549,17.888c-8.004,9.59 -19.01,14.385 -33.016,14.385c-11.824,0 -21.556,-3.312 -29.197,-9.937c-7.882,-6.814 -12.43,-16.247 -13.643,-28.298l20.556,0c0.788,4.543 2.092,8.045 3.911,10.505c4.244,5.742 10.429,8.613 18.554,8.613c14.978,0 22.466,-9.559 22.466,-28.677l0,-12.871c-8.125,8.644 -17.493,12.966 -28.105,12.966c-12.066,0 -21.95,-4.543 -29.651,-13.629c-7.761,-9.211 -11.642,-20.726 -11.642,-34.544c0,-13.439 3.608,-24.859 10.824,-34.26c7.761,-9.969 18.009,-14.954 30.742,-14.954c11.157,0 20.434,4.322 27.832,12.966l0,-10.41l20.465,0l0,90.004ZM615.336,522.622c0,-8.959 -2.305,-16.12 -6.913,-21.483c-4.669,-5.489 -10.641,-8.234 -17.918,-8.234c-7.761,0 -13.885,2.997 -18.372,8.991c-4.063,5.363 -6.094,12.303 -6.094,20.821c0,8.392 2.031,15.269 6.094,20.632c4.426,5.868 10.55,8.802 18.372,8.802c7.822,0 14.007,-2.966 18.555,-8.897c4.184,-5.363 6.276,-12.24 6.276,-20.632Z" style="fill:#fff;fill-rule:nonzero;stroke-width:1px;stroke:#484848;"/><path d="M702.377,474.596l0,91.296l-19.77,0l0,-91.296l19.77,0ZM679.619,436.634c0,-3.686 1.26,-6.873 3.779,-9.56c2.519,-2.687 5.535,-4.031 9.05,-4.031c3.573,0 6.619,1.344 9.138,4.031c2.519,2.624 3.779,5.842 3.779,9.654c0,3.812 -1.26,7.061 -3.779,9.748c-2.46,2.687 -5.477,4.031 -9.05,4.031c-3.573,0 -6.619,-1.344 -9.138,-4.031c-2.519,-2.687 -3.779,-5.967 -3.779,-9.842Z" style="fill:#fff;fill-rule:nonzero;stroke-width:1px;stroke:#484848;"/><path d="M767.387,418.142l0,72.897c8.392,-8.217 17.902,-12.326 28.532,-12.326c12.245,0 22.439,4.314 30.582,12.942c8.143,8.569 12.214,19.252 12.214,32.047c0,13.206 -4.102,24.123 -12.307,32.751c-8.143,8.569 -18.43,12.854 -30.862,12.854c-10.505,0 -19.891,-3.815 -28.159,-11.446l0,8.98l-20.978,0l0,-148.699l20.978,0ZM817.27,524.582c0,-8.217 -2.362,-14.908 -7.086,-20.073c-4.786,-5.282 -10.784,-7.924 -17.995,-7.924c-7.708,0 -13.986,2.554 -18.834,7.66c-4.787,5.048 -7.18,11.621 -7.18,19.721c0,8.334 2.362,14.996 7.087,19.985c4.724,5.106 10.94,7.66 18.647,7.66c7.273,0 13.303,-2.554 18.089,-7.66c4.848,-5.165 7.272,-11.621 7.272,-19.369Z" style="fill:#fff;fill-rule:nonzero;stroke-width:1px;stroke:#484848;"/></g></g></svg>